<?xml version="1.0" encoding="UTF-8"?>
<!DOCTYPE svg PUBLIC "-//W3C//DTD SVG 1.1//EN" "http://www.w3.org/Graphics/SVG/1.1/DTD/svg11.dtd">
<svg xmlns="http://www.w3.org/2000/svg" version="1.1" width="1563px" height="1563px" style="shape-rendering:geometricPrecision; text-rendering:geometricPrecision; image-rendering:optimizeQuality; fill-rule:evenodd; clip-rule:evenodd" xmlns:xlink="http://www.w3.org/1999/xlink">
<g><path style="opacity:1" fill="#000000" d="M -0.5,-0.5 C 520.5,-0.5 1041.5,-0.5 1562.5,-0.5C 1562.5,520.5 1562.5,1041.5 1562.5,1562.5C 1041.5,1562.5 520.5,1562.5 -0.5,1562.5C -0.5,1041.5 -0.5,520.5 -0.5,-0.5 Z"/></g>
<g><path style="opacity:1" fill="#fcf1dc" d="M 789.5,407.5 C 783.627,407.596 777.96,408.263 772.5,409.5C 676.183,423.386 603.516,471.386 554.5,553.5C 569.866,500.64 599.866,458.14 644.5,426C 718.71,374.961 799.71,360.295 887.5,382C 933.465,395.388 973.298,418.888 1007,452.5C 1007.47,453.931 1008.3,455.097 1009.5,456C 973.283,490.053 936.616,523.553 899.5,556.5C 857.216,522.849 809.549,512.016 756.5,524C 712.485,534.715 678.652,559.215 655,597.5C 634.437,635.208 630.77,674.541 644,715.5C 656.537,747.086 677.37,771.586 706.5,789C 773.933,828.231 842.933,830.898 913.5,797C 927.889,790.144 940.889,781.311 952.5,770.5C 937.709,756.877 923.042,743.044 908.5,729C 905.283,726.274 901.95,723.774 898.5,721.5C 875.769,734.245 851.436,742.745 825.5,747C 783.177,751.007 747.01,738.173 717,708.5C 706.626,697.095 698.793,684.095 693.5,669.5C 700.708,674.105 708.042,679.272 715.5,685C 751.802,707.201 791.135,715.535 833.5,710C 847.942,706.855 861.276,701.189 873.5,693C 882.443,685.948 891.276,678.782 900,671.5C 936.788,704.619 973.288,738.119 1009.5,772C 975.633,807.5 934.966,831.833 887.5,845C 801.903,869.007 724.903,853.007 656.5,797C 607.197,751.09 588.697,694.924 601,628.5C 612.321,587.521 634.488,553.688 667.5,527C 721.611,485.506 782.278,471.506 849.5,485C 866.888,490.033 883.222,497.2 898.5,506.5C 917.587,490.252 936.254,473.419 954.5,456C 918.733,428.964 878.399,413.297 833.5,409C 818.865,407.697 804.198,407.197 789.5,407.5 Z"/></g>
<g><path style="opacity:1" fill="#3f3b34" d="M 789.5,407.5 C 784.084,409.117 778.417,409.784 772.5,409.5C 777.96,408.263 783.627,407.596 789.5,407.5 Z"/></g>
<g><path style="opacity:1" fill="#756e64" d="M 770.5,945.5 C 796.995,944.502 823.661,944.169 850.5,944.5C 850.5,951.5 850.5,958.5 850.5,965.5C 841.5,965.5 832.5,965.5 823.5,965.5C 823.831,993.005 823.498,1020.34 822.5,1047.5C 822.5,1020.83 822.5,994.167 822.5,967.5C 822.5,966.5 822.5,965.5 822.5,964.5C 831.5,964.5 840.5,964.5 849.5,964.5C 849.5,958.833 849.5,953.167 849.5,947.5C 823.855,945.509 797.855,944.842 771.5,945.5C 771.167,945.5 770.833,945.5 770.5,945.5 Z"/></g>
<g><path style="opacity:1" fill="#fbf0db" d="M 515.5,943.5 C 537.106,941.414 554.606,948.747 568,965.5C 576.079,978.385 578.745,992.385 576,1007.5C 565.695,1039.41 543.862,1052.58 510.5,1047C 488.393,1040.22 475.559,1025.39 472,1002.5C 470.949,971.238 485.449,951.572 515.5,943.5 Z"/></g>
<g><path style="opacity:1" fill="#fdf2dc" d="M 695.5,945.5 C 703.5,945.5 711.5,945.5 719.5,945.5C 719.5,979.5 719.5,1013.5 719.5,1047.5C 711.14,1047.83 702.807,1047.5 694.5,1046.5C 681,1026.17 667.5,1005.83 654,985.5C 653.5,1006.16 653.333,1026.83 653.5,1047.5C 645.167,1047.5 636.833,1047.5 628.5,1047.5C 628.5,1013.5 628.5,979.5 628.5,945.5C 637.192,945.169 645.859,945.502 654.5,946.5C 667.804,966.969 681.304,987.302 695,1007.5C 695.5,986.836 695.667,966.169 695.5,945.5 Z"/></g>
<g><path style="opacity:1" fill="#fef2dd" d="M 1236.5,945.5 C 1236.5,951.833 1236.5,958.167 1236.5,964.5C 1223.83,964.5 1211.17,964.5 1198.5,964.5C 1198.5,971.833 1198.5,979.167 1198.5,986.5C 1209.83,986.5 1221.17,986.5 1232.5,986.5C 1232.5,992.5 1232.5,998.5 1232.5,1004.5C 1221.17,1004.5 1209.83,1004.5 1198.5,1004.5C 1198.17,1012.35 1198.51,1020.02 1199.5,1027.5C 1211.83,1027.5 1224.17,1027.5 1236.5,1027.5C 1236.5,1034.17 1236.5,1040.83 1236.5,1047.5C 1215.83,1047.5 1195.17,1047.5 1174.5,1047.5C 1174.5,1013.5 1174.5,979.5 1174.5,945.5C 1195.17,945.5 1215.83,945.5 1236.5,945.5 Z"/></g>
<g><path style="opacity:1" fill="#9c9b94" d="M 695.5,945.5 C 703.65,944.507 711.983,944.174 720.5,944.5C 720.832,979.004 720.498,1013.34 719.5,1047.5C 719.5,1013.5 719.5,979.5 719.5,945.5C 711.5,945.5 703.5,945.5 695.5,945.5 Z"/></g>
<g><path style="opacity:1" fill="#faf0db" d="M 367.5,943.5 C 393.005,941.992 411.172,952.659 422,975.5C 422.49,976.793 422.657,978.127 422.5,979.5C 413.143,979.832 403.81,979.498 394.5,978.5C 388.686,969.387 380.352,965.554 369.5,967C 355.478,971.036 348.478,980.369 348.5,995C 347.992,1015.83 357.992,1025.83 378.5,1025C 385.925,1024.07 391.258,1020.24 394.5,1013.5C 403.81,1012.5 413.143,1012.17 422.5,1012.5C 414.961,1036.54 398.461,1048.54 373,1048.5C 340.764,1045.26 323.93,1027.43 322.5,995C 324.256,966.087 339.256,948.92 367.5,943.5 Z"/></g>
<g><path style="opacity:1" fill="#7f796e" d="M 1236.5,945.5 C 1215.83,945.5 1195.17,945.5 1174.5,945.5C 1174.5,979.5 1174.5,1013.5 1174.5,1047.5C 1173.5,1013.34 1173.17,979.004 1173.5,944.5C 1194.67,944.169 1215.67,944.503 1236.5,945.5 Z"/></g>
<g><path style="opacity:1" fill="#f6ebdb" d="M 771.5,945.5 C 797.855,944.842 823.855,945.509 849.5,947.5C 826.076,947.02 802.743,947.52 779.5,949C 780.167,950 780.833,951 781.5,952C 803.497,952.5 825.497,952.667 847.5,952.5C 847.5,953.833 847.5,955.167 847.5,956.5C 825.768,957.149 804.268,956.482 783,954.5C 780.736,957.52 777.903,958.187 774.5,956.5C 771.94,959.028 772.606,960.695 776.5,961.5C 778.646,960.106 780.979,959.44 783.5,959.5C 783.5,960.5 783.5,961.5 783.5,962.5C 788.162,963.415 792.662,963.748 797,963.5C 797.308,962.692 797.808,962.025 798.5,961.5C 799.5,989.492 799.833,1017.49 799.5,1045.5C 806.202,1045.66 812.869,1045.33 819.5,1044.5C 819.34,1042.8 819.506,1041.13 820,1039.5C 820.333,1040.17 820.667,1040.83 821,1041.5C 821.793,1018.15 821.626,994.82 820.5,971.5C 820.585,969.667 821.252,968.334 822.5,967.5C 822.5,994.167 822.5,1020.83 822.5,1047.5C 814.167,1047.5 805.833,1047.5 797.5,1047.5C 797.5,1020.17 797.5,992.833 797.5,965.5C 789.016,964.507 780.349,964.174 771.5,964.5C 771.5,958.167 771.5,951.833 771.5,945.5 Z"/></g>
<g><path style="opacity:1" fill="#bfb9a9" d="M 985.5,945.5 C 977.5,945.5 969.5,945.5 961.5,945.5C 961.831,966.34 961.497,987.007 960.5,1007.5C 960.5,986.5 960.5,965.5 960.5,944.5C 969.017,944.174 977.35,944.507 985.5,945.5 Z"/></g>
<g><path style="opacity:1" fill="#faefda" d="M 1072.5,1009.5 C 1070.39,1008.53 1068.06,1008.2 1065.5,1008.5C 1065.5,1021.5 1065.5,1034.5 1065.5,1047.5C 1057.17,1047.5 1048.83,1047.5 1040.5,1047.5C 1040.5,1013.5 1040.5,979.5 1040.5,945.5C 1057.84,945.333 1075.17,945.5 1092.5,946C 1114.82,951.124 1123.65,964.958 1119,987.5C 1114.97,997.031 1108.14,1003.7 1098.5,1007.5C 1105.97,1020.8 1113.63,1033.96 1121.5,1047C 1111.82,1047.83 1102.15,1047.67 1092.5,1046.5C 1085.57,1034.3 1078.9,1021.97 1072.5,1009.5 Z"/></g>
<g><path style="opacity:1" fill="#fef3dc" d="M 849.5,947.5 C 849.5,953.167 849.5,958.833 849.5,964.5C 840.5,964.5 831.5,964.5 822.5,964.5C 822.5,965.5 822.5,966.5 822.5,967.5C 821.252,968.334 820.585,969.667 820.5,971.5C 821.626,994.82 821.793,1018.15 821,1041.5C 820.667,1040.83 820.333,1040.17 820,1039.5C 819.506,1041.13 819.34,1042.8 819.5,1044.5C 812.869,1045.33 806.202,1045.66 799.5,1045.5C 799.833,1017.49 799.5,989.492 798.5,961.5C 797.808,962.025 797.308,962.692 797,963.5C 792.662,963.748 788.162,963.415 783.5,962.5C 783.5,961.5 783.5,960.5 783.5,959.5C 780.979,959.44 778.646,960.106 776.5,961.5C 772.606,960.695 771.94,959.028 774.5,956.5C 777.903,958.187 780.736,957.52 783,954.5C 804.268,956.482 825.768,957.149 847.5,956.5C 847.5,955.167 847.5,953.833 847.5,952.5C 825.497,952.667 803.497,952.5 781.5,952C 780.833,951 780.167,950 779.5,949C 802.743,947.52 826.076,947.02 849.5,947.5 Z"/></g>
<g><path style="opacity:1" fill="#9d968c" d="M 924.5,945.5 C 916.5,945.5 908.5,945.5 900.5,945.5C 900.5,968.167 900.5,990.833 900.5,1013.5C 899.502,990.673 899.169,967.673 899.5,944.5C 908.017,944.174 916.35,944.507 924.5,945.5 Z"/></g>
<g><path style="opacity:1" fill="#fdf1dc" d="M 924.5,945.5 C 924.333,967.169 924.5,988.836 925,1010.5C 928.731,1023.78 937.231,1028.28 950.5,1024C 957.259,1020.66 960.592,1015.16 960.5,1007.5C 961.497,987.007 961.831,966.34 961.5,945.5C 969.5,945.5 977.5,945.5 985.5,945.5C 985.667,968.836 985.5,992.169 985,1015.5C 980.743,1033.42 969.576,1044.26 951.5,1048C 937.203,1050.34 924.203,1047.34 912.5,1039C 905.674,1031.85 901.674,1023.35 900.5,1013.5C 900.5,990.833 900.5,968.167 900.5,945.5C 908.5,945.5 916.5,945.5 924.5,945.5 Z"/></g>
<g><path style="opacity:1" fill="#aea89c" d="M 770.5,945.5 C 770.833,945.5 771.167,945.5 771.5,945.5C 771.5,951.833 771.5,958.167 771.5,964.5C 780.349,964.174 789.016,964.507 797.5,965.5C 788.5,965.5 779.5,965.5 770.5,965.5C 770.5,958.833 770.5,952.167 770.5,945.5 Z"/></g>
<g><path style="opacity:1" fill="#a79f93" d="M 1236.5,964.5 C 1224.34,965.495 1212.01,965.829 1199.5,965.5C 1199.5,972.167 1199.5,978.833 1199.5,985.5C 1210.68,985.172 1221.68,985.505 1232.5,986.5C 1221.17,986.5 1209.83,986.5 1198.5,986.5C 1198.5,979.167 1198.5,971.833 1198.5,964.5C 1211.17,964.5 1223.83,964.5 1236.5,964.5 Z"/></g>
<g><path style="opacity:1" fill="#030202" d="M 518.5,966.5 C 542.737,966.242 553.57,978.242 551,1002.5C 546.583,1020.64 535.083,1028.14 516.5,1025C 506.362,1021.2 500.196,1014.03 498,1003.5C 494.53,985.082 501.363,972.749 518.5,966.5 Z"/></g>
<g><path style="opacity:1" fill="#030202" d="M 1085.5,966.5 C 1092.02,967.525 1095.02,971.358 1094.5,978C 1095.48,985.168 1092.48,989.335 1085.5,990.5C 1079.17,990.5 1072.83,990.5 1066.5,990.5C 1066.5,982.5 1066.5,974.5 1066.5,966.5C 1072.83,966.5 1079.17,966.5 1085.5,966.5 Z"/></g>
<g><path style="opacity:1" fill="#78746a" d="M 1085.5,966.5 C 1079.17,966.5 1072.83,966.5 1066.5,966.5C 1066.5,974.5 1066.5,982.5 1066.5,990.5C 1072.83,990.5 1079.17,990.5 1085.5,990.5C 1079.02,991.491 1072.35,991.824 1065.5,991.5C 1065.5,982.833 1065.5,974.167 1065.5,965.5C 1072.35,965.176 1079.02,965.509 1085.5,966.5 Z"/></g>
<g><path style="opacity:1" fill="#9a9185" d="M 1232.5,1004.5 C 1221.68,1005.49 1210.68,1005.83 1199.5,1005.5C 1199.5,1012.83 1199.5,1020.17 1199.5,1027.5C 1198.51,1020.02 1198.17,1012.35 1198.5,1004.5C 1209.83,1004.5 1221.17,1004.5 1232.5,1004.5 Z"/></g>
<g><path style="opacity:1" fill="#878174" d="M 1072.5,1009.5 C 1070.5,1009.5 1068.5,1009.5 1066.5,1009.5C 1066.83,1022.34 1066.5,1035.01 1065.5,1047.5C 1065.5,1034.5 1065.5,1021.5 1065.5,1008.5C 1068.06,1008.2 1070.39,1008.53 1072.5,1009.5 Z"/></g>
<g><path style="opacity:1" fill="#7e786d" d="M 730.5,1117.5 C 721.167,1117.5 711.833,1117.5 702.5,1117.5C 702.5,1134.83 702.5,1152.17 702.5,1169.5C 701.503,1152.01 701.17,1134.34 701.5,1116.5C 711.348,1116.17 721.014,1116.51 730.5,1117.5 Z"/></g>
<g><path style="opacity:1" fill="#ede3d3" d="M 866.5,1117.5 C 868.833,1117.5 871.167,1117.5 873.5,1117.5C 873.5,1134.83 873.5,1152.17 873.5,1169.5C 871.167,1169.5 868.833,1169.5 866.5,1169.5C 866.5,1152.17 866.5,1134.83 866.5,1117.5 Z"/></g>
<g><path style="opacity:1" fill="#fcf2df" d="M 730.5,1117.5 C 730.5,1119.17 730.5,1120.83 730.5,1122.5C 723.167,1122.5 715.833,1122.5 708.5,1122.5C 708.5,1128.5 708.5,1134.5 708.5,1140.5C 714.833,1140.5 721.167,1140.5 727.5,1140.5C 727.5,1142.17 727.5,1143.83 727.5,1145.5C 721.167,1145.5 714.833,1145.5 708.5,1145.5C 708.5,1151.83 708.5,1158.17 708.5,1164.5C 715.5,1164.5 722.5,1164.5 729.5,1164.5C 729.5,1166.17 729.5,1167.83 729.5,1169.5C 720.5,1169.5 711.5,1169.5 702.5,1169.5C 702.5,1152.17 702.5,1134.83 702.5,1117.5C 711.833,1117.5 721.167,1117.5 730.5,1117.5 Z"/></g>
<g><path style="opacity:1" fill="#605a50" d="M 730.5,1122.5 C 723.687,1123.49 716.687,1123.82 709.5,1123.5C 709.5,1128.83 709.5,1134.17 709.5,1139.5C 715.833,1139.5 722.167,1139.5 728.5,1139.5C 728.795,1141.74 728.461,1143.74 727.5,1145.5C 727.5,1143.83 727.5,1142.17 727.5,1140.5C 721.167,1140.5 714.833,1140.5 708.5,1140.5C 708.5,1134.5 708.5,1128.5 708.5,1122.5C 715.833,1122.5 723.167,1122.5 730.5,1122.5 Z"/></g>
<g><path style="opacity:1" fill="#f7eedb" d="M 777.5,1117.5 C 785.507,1117.33 793.507,1117.5 801.5,1118C 814.457,1121.29 821.124,1129.62 821.5,1143C 821.345,1157.82 814.012,1166.48 799.5,1169C 792.174,1169.5 784.841,1169.67 777.5,1169.5C 777.5,1152.17 777.5,1134.83 777.5,1117.5 Z"/></g>
<g><path style="opacity:1" fill="#989791" d="M 796.5,1123.5 C 792.5,1123.5 788.5,1123.5 784.5,1123.5C 784.5,1136.83 784.5,1150.17 784.5,1163.5C 783.504,1150.01 783.171,1136.34 783.5,1122.5C 788.032,1122.18 792.366,1122.52 796.5,1123.5 Z"/></g>
<g><path style="opacity:1" fill="#040303" d="M 796.5,1123.5 C 805.706,1123.87 811.54,1128.53 814,1137.5C 815.435,1158.55 805.602,1167.22 784.5,1163.5C 784.5,1150.17 784.5,1136.83 784.5,1123.5C 788.5,1123.5 792.5,1123.5 796.5,1123.5 Z"/></g>
<g><path style="opacity:1" fill="#80796c" d="M 727.5,1145.5 C 721.69,1146.49 715.69,1146.82 709.5,1146.5C 709.5,1152.17 709.5,1157.83 709.5,1163.5C 716.5,1163.5 723.5,1163.5 730.5,1163.5C 730.795,1165.74 730.461,1167.74 729.5,1169.5C 729.5,1167.83 729.5,1166.17 729.5,1164.5C 722.5,1164.5 715.5,1164.5 708.5,1164.5C 708.5,1158.17 708.5,1151.83 708.5,1145.5C 714.833,1145.5 721.167,1145.5 727.5,1145.5 Z"/></g>
<g><path style="opacity:1" fill="#f7efdc" d="M 937.5,1117.5 C 940.5,1117.5 943.5,1117.5 946.5,1117.5C 952.095,1134.62 958.095,1151.62 964.5,1168.5C 961.914,1169.48 959.247,1169.81 956.5,1169.5C 956.117,1165.68 955.117,1162.01 953.5,1158.5C 945.855,1157.34 938.188,1157.17 930.5,1158C 929.073,1161.44 927.74,1164.94 926.5,1168.5C 924.257,1169.47 921.924,1169.81 919.5,1169.5C 924.925,1151.98 930.925,1134.65 937.5,1117.5 Z"/></g>
<g><path style="opacity:1" fill="#493d2a" d="M 933.5,1149.5 C 938.735,1151.45 944.402,1152.12 950.5,1151.5C 945.262,1152.5 939.262,1152.83 932.5,1152.5C 932.263,1151.21 932.596,1150.21 933.5,1149.5 Z"/></g>
<g><path style="opacity:1" fill="#0d0a09" d="M 950.5,1151.5 C 944.402,1152.12 938.735,1151.45 933.5,1149.5C 936.041,1141.71 938.875,1134.04 942,1126.5C 945.141,1134.76 947.974,1143.09 950.5,1151.5 Z"/></g>
<g><path style="opacity:1" fill="#f5ebd9" d="M 647.5,1169.5 C 647.667,1156.83 647.5,1144.16 647,1131.5C 646.283,1132.04 645.783,1132.71 645.5,1133.5C 640.494,1145.51 635.494,1157.51 630.5,1169.5C 628.396,1169.8 626.396,1169.47 624.5,1168.5C 618.903,1156.21 613.403,1143.88 608,1131.5C 607.5,1144.16 607.333,1156.83 607.5,1169.5C 605.167,1169.5 602.833,1169.5 600.5,1169.5C 600.5,1152.17 600.5,1134.83 600.5,1117.5C 603.247,1117.19 605.914,1117.52 608.5,1118.5C 614.667,1132.17 620.833,1145.83 627,1159.5C 633.992,1145.85 640.159,1131.85 645.5,1117.5C 648.167,1117.5 650.833,1117.5 653.5,1117.5C 653.5,1134.83 653.5,1152.17 653.5,1169.5C 651.5,1169.5 649.5,1169.5 647.5,1169.5 Z"/></g>
<g><path style="opacity:1" fill="#958f83" d="M 647.5,1169.5 C 646.833,1157.5 646.167,1145.5 645.5,1133.5C 645.783,1132.71 646.283,1132.04 647,1131.5C 647.5,1144.16 647.667,1156.83 647.5,1169.5 Z"/></g>
</svg>
